<?xml version="1.0" encoding="UTF-8"?>
<svg id="Layer_1" data-name="Layer 1" xmlns="http://www.w3.org/2000/svg" viewBox="0 0 1069.4 408.03">
  <defs>
    <style>
      .cls-1 {
        fill: #e2cb67;
      }
    </style>
  </defs>
  <g>
    <path class="cls-1" d="M191.34,305.3s-.07-.09-.18-.12c.11,.17,.18,.23,.18,.12Z"/>
    <path class="cls-1" d="M270.93,236.6s29.08-5.05,42.12,19.23c14.08,26.22,39.55,20.68,46.16,3.26,0,0,7.82,7,3.29,13.37,0,0,24.28,4.73,16.05,27.58,0,0-1.56-12.84-21.4-11.32-13.57,1.03-32.36,4.59-43.15-8.9-10.79-13.49-11.63-36.29-43.07-43.23Z"/>
    <path class="cls-1" d="M364.79,78.5c-35.87-19.65-63.29-17.37-63.29-17.37,13.42-4.75,29.24-5.56,43.14-4.89-25.86-24.62-58.17-42.51-94.13-50.9-17.52-.22-39.29,.83-52.43,6.33,0,0,6.67-6.14,25.27-10.75-6.37-.6-12.82-.91-19.35-.91C128.1,0,61.9,41.46,26.76,102.96,81.37,33.45,162.12,30.18,162.12,30.18c-8.03,2.3-21.21,10.83-23.07,12.91,69.56-17.56,132.78,4.1,132.78,4.1-27.43,9.44-36.87,24.73-36.87,24.73,112-1.81,164.31,72.99,164.39,73.08-7.37-24.42-19.22-46.89-34.55-66.51Z"/>
    <path class="cls-1" d="M368.51,214.81c-2.48-4.91-5.92-7.53-12.25-10.01-2.87-.85-6.4-1.81-8.28-.22l-7.94-6.89c-1.77-1.54-3.94-2.24-7.49-1.31-.47-2.33-1.91-4.15-6.07-7.08-2.7-1.43-5.46-5.54-8.77-4.35l-10.49-16.64c-3.67-12.74-13.11-20.71-26.98-31.33-13.77-10.36-28.4-23.64-31.33-44.82-2.03,9.15-1.89,21.18,2.59,28.92-27.21-12.05-40.81-37.87-40.81-37.87,2.95,23.59,23.59,41.49,37.73,49.95l29.12,11.85s-17.63-3.11-34.9-6.33c0,0-.01,0-.02,0-93.53-22.07-100.27-60-100.27-60-2.12,12.31,3.57,22.07,8.91,28.22l17.62,9.4-9.67-2.1c-42.27-10.79-62.73-49.01-62.73-49.01,0,0,.32,7.94,15.89,30.73,23.95,35.07,100.71,54.86,100.71,54.86-1.83-.16-51.84,4.57-87.29,39.98,7.03-2.28,17.72-3.76,25.26-3.41-59.96,32.38-70.75,104.47-70.75,104.47-23.83-102.07,69.7-147.49,69.7-147.49C46.4,145.96,7.11,178.89,.9,184.79c-.57,6.11-.88,12.3-.9,18.56,5.93-6.08,15.73-13.99,31.11-21.03,0,0-20.66,14.41-30.58,36.18,.78,11.13,2.45,22.02,4.94,32.59,8.26-22.85,28.88-54.98,80.2-79.34,0,0-58.9,35.52-64.61,122.59,7.29,14.74,16.31,28.47,26.79,40.93,1.02-12.41,3.26-28.01,8.14-39.41,0,0-2.6,27.79,11.12,59.4,19.09,17.29,41.46,31.02,66.07,40.14-16.94-51.94-26.54-136.41,29.23-182.81,1.96-1.63-67.45,58.1-8.65,189.2,16.07,4.07,32.9,6.24,50.24,6.24,6.88,0,13.67-.36,20.37-1.02-15.1-5.87-33.04-17.91-44.88-34.7,0,0,24.58,29.38,83.02,27.2,41.68-12.46,77.77-37.89,103.57-71.6h0c-15.82,15.82-54.62,16.18-54.62,16.18-4.57,14.43-26.26,32.72-45.79,33.92,27.73-11.39,32.68-34.23,32.68-34.23-16.84,.83-36.23-1.41-55.76-5.41-37.51,27.54-89.93,4.27-89.93,4.27,47.55,13.6,76.67-8.42,76.67-8.42-13.11-1.54-26.98-11.51-33.95-20.81-30.05,1.57-41.28-9.78-50.83-19.94,16.78,13.74,43.56,13.27,46.6,11.73-6.53-7.29-7.72-14.66-8.06-22.67-32.83-13.19-22.29-45.92-22.29-45.92-1.69,31.55,23.79,37.67,23.79,37.67,3.76-6.88,9.74-16.68,21.88-21.21-15.47-29.08-3.9-54.34-3.9-54.34-3.94,28.43,16.53,33.86,34.17,45.19,15.35,9.86,31.76,25.88,34.17,38.56-.45,5.85-7.11,10.4-9.83,11.81,8.02,2.25,13.09-1.13,13.09-1.13,.9,11.69-15.96,15.51-15.96,15.51,22.82,2.81,28.89-11.31,28.89-11.31,13.01,1.87,18.9-7.98,17.86-14.72-2.27,1.71-4.17,2.32-7.82,2.12-.04-21.28-39.6-22.98-38.28-61.07-4.07-2.81-11.09-8.1-13.88-12.97-.35-.6,16.31,8.93,35.47,12.86l14.98,1.66s2.54-.03,5.47,.6l.81,.09c.14,.07,.27,.14,.41,.21,3.78,1.05,7.72,3.33,7.5,8.23,1.31-.6,4.25-3.93,3.78-6.64,5.99,3.07,8.32,5.36,9.78,8.51,1.99-.08,5.27-2.75,5.04-5.74,5.92,7.95-3.05,22.15-3.05,22.15,19.35-5.3,20.04-16.05,20.04-16.05,4.68,5.3,3.34,12.34,3.34,12.34,12.44-.75,16.08-8.53,16.08-8.53,4.53,.03,4.76-1.06,4.76-1.06,5.27-12.08-.9-24.54-.9-24.54Zm-88.58-28.89s-11.02-6.07-6.97-14.16l25.41,21.13-18.44-6.97Z"/>
  </g>
  <g>
    <path class="cls-1" d="M488.5,190.13s-1.76,2.1-1.76,4.95v5.63c0,2.44,.61,4.07,.61,4.07,0,0-7.6,7.39-19.88,7.39-13.43,0-23-9.23-23-22.59,0-14.45,10.79-24.76,24.36-24.76,10.24,0,16.21,3.46,16.21,3.46,0,0-.48,3.05-.48,5.9,0,2.44,.41,4.34,.41,4.34-.61,.68-1.76,1.02-2.85,.81-1.83-5.43-6.65-10.85-14.58-10.85-7.46,0-13.03,5.83-13.03,16.76,0,14.11,7.87,22.66,16.08,22.66,3.6,0,6.65-1.29,6.65-1.29,0,0,.47-1.29,.47-3.26v-5.56c0-3.32-2.04-5.16-8.21-5.16,0,0-.34-.88-.34-1.49,0-.81,.41-1.56,.41-1.56,0,0,8.48,.2,10.92,.2,3.8,0,7.12-1.09,7.12-1.09l.88,1.42Z"/>
    <path class="cls-1" d="M542.71,187.34c0,14.52-10.85,24.83-24.42,24.83s-23-9.23-23-22.59c0-14.52,10.85-24.76,24.42-24.76s23,9.16,23,22.52Zm-10.11,3.93c0-13.7-7.94-22.52-16.15-22.52-6.17,0-11.12,5.7-11.12,16.49,0,13.7,8,22.52,16.21,22.52,6.17,0,11.06-5.7,11.06-16.49Z"/>
    <path class="cls-1" d="M588.71,198.33s-1.42,6.24-1.56,12.55c0,0-8.96-.2-17.3-.2h-10.92c-5.43,0-10.79,.47-10.79,.47,0,0-.41-.47-.41-1.22,0-.61,.2-1.02,.2-1.02,3.73-.2,5.77-2.04,5.77-5.7v-29.51c0-3.66-2.04-5.5-5.77-5.7,0,0-.2-.41-.2-1.02,0-.75,.41-1.29,.41-1.29,0,0,5.83,.54,10.18,.54s10.58-.54,10.58-.54c0,0,.41,.54,.41,1.29,0,.61-.2,1.02-.2,1.02-3.93,.2-5.97,2.04-5.97,5.7v28.09c0,3.53,2.31,5.5,6.78,5.5h4.82c6.24,0,9.57-2.71,11.19-9.5,0,0,.48-.14,1.02-.14,1.09,0,1.76,.68,1.76,.68Z"/>
    <path class="cls-1" d="M641.76,186.8c0,14.59-9.43,24.49-21.51,24.49-4.48,0-9.7-.61-16.49-.61-5.63,0-10.79,.41-10.79,.41,0,0-.41-.47-.41-1.22,0-.61,.2-1.02,.2-1.02,3.73-.2,5.77-2.04,5.77-5.7v-29.44c0-3.66-2.04-5.5-5.77-5.7,0,0-.2-.34-.2-.95,0-.75,.41-1.29,.41-1.29,0,0,6.58,.47,11.87,.47,5.9,0,9.84-.68,16.76-.68,12.28,0,20.15,9.97,20.15,21.23Zm-10.11,2.51c0-12.69-6.58-20.56-17.03-20.56-4.07,0-6.65,.95-6.65,.95v33.45c0,3.53,2.65,5.16,8.14,5.16,9.36,0,15.54-7.19,15.54-19Z"/>
    <path class="cls-1" d="M688.1,198.33s-1.49,6.38-1.63,12.55c0,0-8.96-.2-17.3-.2h-10.92c-5.43,0-10.79,.47-10.79,.47,0,0-.41-.47-.41-1.22,0-.61,.2-1.02,.2-1.02,3.73-.2,5.77-2.04,5.77-5.7v-29.51c0-3.66-2.04-5.5-5.77-5.7,0,0-.2-.41-.2-1.02,0-.75,.41-1.29,.41-1.29,0,0,5.29,.54,10.58,.54h18.25c4.54,0,7.53-1.49,7.53-1.49l1.02,.68c-.14,6.65,.61,11.4,.61,11.4-.54,.41-1.7,.68-2.51,.47-1.76-6.44-3.93-7.94-10.11-7.94h-10.38v16.55l6.31-.14c4.88-.14,6.51-1.56,7.26-6.17,0,0,.41-.14,.95-.14,.95,0,1.56,.54,1.56,.54,0,0-.54,4.14-.54,7.46s.54,7.46,.54,7.46c0,0-.61,.48-1.56,.48-.54,0-.95-.14-.95-.14-.75-4.61-2.38-5.97-7.26-6.11l-6.31-.14v12.75c0,3.53,2.31,5.5,6.78,5.5h4.82c6.24,0,9.57-2.71,11.19-9.5,0,0,.48-.14,1.02-.14,1.09,0,1.83,.68,1.83,.68Z"/>
    <path class="cls-1" d="M742.52,166.99c0,.61-.27,1.02-.27,1.02-3.66,.34-5.7,1.63-5.7,7.94v29.92c0,2.78,.14,5.09,.14,5.09h-6.04l-28.15-34.87v24.35c0,6.85,1.76,8.01,6.04,8.48,0,0,.2,.41,.2,1.02,0,.75-.41,1.22-.41,1.22,0,0-4.07-.47-7.67-.47s-7.67,.47-7.67,.47c0,0-.41-.47-.41-1.22,0-.61,.2-1.02,.2-1.02,4.27-.27,6.04-1.63,6.04-8.48v-24.76c0-5.22-1.36-6.99-5.77-7.6,0,0-.2-.61-.2-1.09,0-.61,.34-1.36,.34-1.36,0,0,6.04,.47,15.2,.47,0,0,.68,2.71,2.98,5.56l21.57,26.93v-22.66c0-6.38-2.31-7.6-6.31-7.94,0,0-.2-.41-.2-1.02,0-.75,.41-1.29,.41-1.29,0,0,4,.47,7.73,.47s7.53-.47,7.53-.47c0,0,.41,.54,.41,1.29Z"/>
    <path class="cls-1" d="M812.47,186.8c0,14.59-9.43,24.49-21.5,24.49-4.48,0-9.7-.61-16.49-.61-5.63,0-10.79,.41-10.79,.41,0,0-.41-.47-.41-1.22,0-.61,.2-1.02,.2-1.02,3.73-.2,5.77-2.04,5.77-5.7v-29.44c0-3.66-2.04-5.5-5.77-5.7,0,0-.2-.34-.2-.95,0-.75,.41-1.29,.41-1.29,0,0,6.58,.47,11.87,.47,5.9,0,9.84-.68,16.76-.68,12.28,0,20.15,9.97,20.15,21.23Zm-10.11,2.51c0-12.69-6.58-20.56-17.03-20.56-4.07,0-6.65,.95-6.65,.95v33.45c0,3.53,2.65,5.16,8.14,5.16,9.36,0,15.54-7.19,15.54-19Z"/>
    <path class="cls-1" d="M865.25,209.87c0,.75-.41,1.22-.41,1.22,0,0-4.68-.41-8.68-.41-2.99,0-5.83,.2-5.83,.2-.88-1.76-9.97-16.42-13.16-20.28l-3.66,.27v12.14c0,3.87,1.9,5.7,5.97,5.9,0,0,.27,.41,.27,1.02,0,.75-.41,1.22-.41,1.22,0,0-5.97-.47-10.58-.47s-10.58,.47-10.58,.47c0,0-.41-.47-.41-1.22,0-.61,.27-1.02,.27-1.02,4.07-.2,5.97-2.04,5.97-5.9v-29.31c0-3.66-2.04-5.5-5.77-5.7,0,0-.2-.41-.2-1.02,0-.75,.41-1.29,.41-1.29,0,0,5.83,.54,10.18,.54s11.47-.68,15.47-.68c7.87,0,12.55,4.68,12.55,11.13,0,7.53-4.07,10.99-9.23,12.82,0,0,5.43,7.94,9.43,13.77,2.58,3.73,5.16,5.36,8.14,5.56,0,0,.27,.41,.27,1.02Zm-17.98-32.63c0-6.04-3.19-9.09-8.41-9.09-3.12,0-5.36,.81-5.36,3.12v16.21s1.42,.41,3.53,.41c6.51,0,10.24-3.66,10.24-10.65Z"/>
    <path class="cls-1" d="M916.27,209.94c0,.75-.41,1.22-.41,1.22,0,0-5.77-.47-10.04-.47-5.09,0-11.06,.47-11.06,.47,0,0-.41-.47-.41-1.22,0-.61,.2-1.02,.2-1.02,2.85-.07,4.61-1.42,4.61-3.12,0-.81-.34-1.76-.75-2.71l-3.39-8.14s-4-.47-8.48-.47-8.34,.47-8.34,.47l-2.99,6.78c-.54,1.15-1.02,2.38-1.02,3.32,0,2.04,2.71,3.8,5.02,3.87,0,0,.2,.41,.2,1.02,0,.75-.41,1.22-.41,1.22,0,0-4.88-.47-8.28-.47-3.05,0-7.39,.47-7.39,.47,0,0-.41-.47-.41-1.22,0-.61,.2-1.02,.2-1.02,3.05-.14,5.63-2.51,7.39-6.38l16.55-36.23c1.15,0,4.61-.68,5.77-.81,0,0,1.09,2.71,2.17,5.22l13.57,31.07c2.24,5.09,4.88,6.99,7.46,7.12,0,0,.2,.41,.2,1.02Zm-22.73-18.72l-6.78-16.08-6.92,16.08s3.19,.27,6.72,.27,6.99-.27,6.99-.27Z"/>
    <path class="cls-1" d="M961.05,190.13s-1.76,2.1-1.76,4.95v5.63c0,2.44,.61,4.07,.61,4.07,0,0-7.6,7.39-19.88,7.39-13.43,0-23-9.23-23-22.59,0-14.45,10.79-24.76,24.36-24.76,10.24,0,16.21,3.46,16.21,3.46,0,0-.48,3.05-.48,5.9,0,2.44,.41,4.34,.41,4.34-.61,.68-1.76,1.02-2.85,.81-1.83-5.43-6.65-10.85-14.58-10.85-7.46,0-13.03,5.83-13.03,16.76,0,14.11,7.87,22.66,16.08,22.66,3.6,0,6.65-1.29,6.65-1.29,0,0,.47-1.29,.47-3.26v-5.56c0-3.32-2.04-5.16-8.21-5.16,0,0-.34-.88-.34-1.49,0-.81,.41-1.56,.41-1.56,0,0,8.48,.2,10.92,.2,3.8,0,7.12-1.09,7.12-1.09l.88,1.42Z"/>
    <path class="cls-1" d="M1015.26,187.34c0,14.52-10.85,24.83-24.42,24.83s-23-9.23-23-22.59c0-14.52,10.85-24.76,24.42-24.76s23,9.16,23,22.52Zm-10.11,3.93c0-13.7-7.94-22.52-16.15-22.52-6.17,0-11.12,5.7-11.12,16.49,0,13.7,8,22.52,16.21,22.52,6.17,0,11.06-5.7,11.06-16.49Z"/>
    <path class="cls-1" d="M1069.4,166.99c0,.61-.27,1.02-.27,1.02-3.66,.34-5.7,1.63-5.7,7.94v29.92c0,2.78,.14,5.09,.14,5.09h-6.04l-28.15-34.87v24.35c0,6.85,1.76,8.01,6.04,8.48,0,0,.2,.41,.2,1.02,0,.75-.41,1.22-.41,1.22,0,0-4.07-.47-7.67-.47s-7.67,.47-7.67,.47c0,0-.41-.47-.41-1.22,0-.61,.2-1.02,.2-1.02,4.27-.27,6.04-1.63,6.04-8.48v-24.76c0-5.22-1.36-6.99-5.77-7.6,0,0-.2-.61-.2-1.09,0-.61,.34-1.36,.34-1.36,0,0,6.04,.47,15.2,.47,0,0,.68,2.71,2.99,5.56l21.57,26.93v-22.66c0-6.38-2.31-7.6-6.31-7.94,0,0-.2-.41-.2-1.02,0-.75,.41-1.29,.41-1.29,0,0,4,.47,7.73,.47s7.53-.47,7.53-.47c0,0,.41,.54,.41,1.29Z"/>
    <path class="cls-1" d="M484.43,242.44c0,8.96-6.72,14.72-17.1,14.72-3.26,0-6.65-.95-6.65-.95v11.8c0,3.8,2.1,5.7,6.51,5.9,0,0,.27,.41,.27,1.02,0,.75-.41,1.22-.41,1.22,0,0-5.97-.54-10.99-.54-4.75,0-10.72,.54-10.72,.54,0,0-.41-.47-.41-1.22,0-.61,.27-1.02,.27-1.02,4.07-.2,5.97-2.04,5.97-5.9v-29.31c0-3.66-1.97-5.5-5.7-5.7,0,0-.2-.41-.2-1.02,0-.75,.41-1.29,.41-1.29,0,0,5.77,.54,10.11,.54,5.02,0,10.45-.54,15.74-.54,7.73,0,12.89,5.22,12.89,11.74Zm-9.5,.68c0-6.04-3.19-9.7-8.55-9.7-3.46,0-5.7,.61-5.7,2.92v17.3s1.76,.61,4.34,.61c6.17,0,9.91-4.41,9.91-11.13Z"/>
    <path class="cls-1" d="M534.16,274.94c0,.75-.41,1.22-.41,1.22,0,0-5.77-.47-10.04-.47-5.09,0-11.06,.47-11.06,.47,0,0-.41-.47-.41-1.22,0-.61,.2-1.02,.2-1.02,2.85-.07,4.61-1.42,4.61-3.12,0-.81-.34-1.76-.75-2.71l-3.39-8.14s-4-.47-8.48-.47-8.34,.47-8.34,.47l-2.99,6.78c-.54,1.15-1.02,2.38-1.02,3.32,0,2.04,2.71,3.8,5.02,3.87,0,0,.2,.41,.2,1.02,0,.75-.41,1.22-.41,1.22,0,0-4.88-.47-8.28-.47-3.05,0-7.39,.47-7.39,.47,0,0-.41-.47-.41-1.22,0-.61,.2-1.02,.2-1.02,3.05-.14,5.63-2.51,7.39-6.38l16.55-36.23c1.15,0,4.61-.68,5.77-.81,0,0,1.09,2.71,2.17,5.22l13.57,31.07c2.24,5.09,4.88,6.99,7.46,7.12,0,0,.2,.41,.2,1.02Zm-22.73-18.72l-6.78-16.08-6.92,16.08s3.19,.27,6.72,.27,6.99-.27,6.99-.27Z"/>
    <path class="cls-1" d="M577.31,263.33s-1.42,6.24-1.56,12.55c0,0-8.96-.2-17.3-.2h-10.92c-5.43,0-10.79,.47-10.79,.47,0,0-.41-.47-.41-1.22,0-.61,.2-1.02,.2-1.02,3.73-.2,5.77-2.04,5.77-5.7v-29.51c0-3.66-2.04-5.5-5.77-5.7,0,0-.2-.41-.2-1.02,0-.75,.41-1.29,.41-1.29,0,0,5.83,.54,10.18,.54s10.58-.54,10.58-.54c0,0,.41,.54,.41,1.29,0,.61-.2,1.02-.2,1.02-3.93,.2-5.97,2.04-5.97,5.7v28.09c0,3.53,2.31,5.5,6.78,5.5h4.82c6.24,0,9.57-2.71,11.19-9.5,0,0,.48-.14,1.02-.14,1.09,0,1.76,.68,1.76,.68Z"/>
    <path class="cls-1" d="M631.45,274.94c0,.75-.41,1.22-.41,1.22,0,0-5.77-.47-10.04-.47-5.09,0-11.06,.47-11.06,.47,0,0-.41-.47-.41-1.22,0-.61,.2-1.02,.2-1.02,2.85-.07,4.61-1.42,4.61-3.12,0-.81-.34-1.76-.75-2.71l-3.39-8.14s-4-.47-8.48-.47-8.34,.47-8.34,.47l-2.99,6.78c-.54,1.15-1.02,2.38-1.02,3.32,0,2.04,2.71,3.8,5.02,3.87,0,0,.2,.41,.2,1.02,0,.75-.41,1.22-.41,1.22,0,0-4.88-.47-8.28-.47-3.05,0-7.39,.47-7.39,.47,0,0-.41-.47-.41-1.22,0-.61,.2-1.02,.2-1.02,3.05-.14,5.63-2.51,7.39-6.38l16.55-36.23c1.15,0,4.61-.68,5.77-.81,0,0,1.09,2.71,2.17,5.22l13.57,31.07c2.24,5.09,4.88,6.99,7.46,7.12,0,0,.2,.41,.2,1.02Zm-22.73-18.72l-6.78-16.08-6.92,16.08s3.19,.27,6.72,.27,6.99-.27,6.99-.27Z"/>
    <path class="cls-1" d="M673.79,266.86c-2.78,4.54-9.02,10.31-18.59,10.31-13.5,0-23-9.23-23-22.59,0-14.45,10.79-24.76,24.35-24.76,9.9,0,16.21,3.53,16.21,3.53,0,0-.47,2.58-.47,5.56,0,2.58,.54,4.68,.54,4.68-.54,.68-1.7,1.15-2.85,.95-1.97-5.7-6.72-11.06-14.86-11.06-7.19,0-12.89,5.9-12.89,16.76,0,13.7,7.46,21.91,17.3,21.91,5.63,0,10.72-4.21,12.62-6.99,.88,.2,1.49,.95,1.63,1.7Z"/>
    <path class="cls-1" d="M720.06,263.33s-1.49,6.38-1.63,12.55c0,0-8.96-.2-17.3-.2h-10.92c-5.43,0-10.79,.47-10.79,.47,0,0-.41-.47-.41-1.22,0-.61,.2-1.02,.2-1.02,3.73-.2,5.77-2.04,5.77-5.7v-29.51c0-3.66-2.04-5.5-5.77-5.7,0,0-.2-.41-.2-1.02,0-.75,.41-1.29,.41-1.29,0,0,5.29,.54,10.58,.54h18.25c4.54,0,7.53-1.49,7.53-1.49l1.02,.68c-.14,6.65,.61,11.4,.61,11.4-.54,.41-1.7,.68-2.51,.47-1.76-6.44-3.93-7.94-10.11-7.94h-10.38v16.55l6.31-.14c4.88-.14,6.51-1.56,7.26-6.17,0,0,.41-.14,.95-.14,.95,0,1.56,.54,1.56,.54,0,0-.54,4.14-.54,7.46s.54,7.46,.54,7.46c0,0-.61,.48-1.56,.48-.54,0-.95-.14-.95-.14-.75-4.61-2.38-5.97-7.26-6.11l-6.31-.14v12.75c0,3.53,2.31,5.5,6.78,5.5h4.82c6.24,0,9.57-2.71,11.19-9.5,0,0,.48-.14,1.02-.14,1.09,0,1.83,.68,1.83,.68Z"/>
  </g>
</svg>