<?xml version="1.0" encoding="UTF-8"?><svg id="Layer_1" xmlns="http://www.w3.org/2000/svg" viewBox="0 0 1069.4 408.03"><defs><style>.cls-1{fill:#d8c265;stroke-width:0px;}</style></defs><path class="cls-1" d="m191.34,305.3s-.07-.09-.18-.12c.11.17.18.23.18.12Z"/><path class="cls-1" d="m270.93,236.6s29.08-5.05,42.12,19.23c14.08,26.22,39.55,20.68,46.16,3.26,0,0,7.82,7,3.29,13.37,0,0,24.28,4.73,16.05,27.58,0,0-1.56-12.84-21.4-11.32-13.57,1.03-32.36,4.59-43.15-8.9-10.79-13.49-11.63-36.29-43.07-43.23Z"/><path class="cls-1" d="m364.79,78.5c-35.87-19.65-63.29-17.37-63.29-17.37,13.42-4.75,29.24-5.56,43.14-4.89-25.86-24.62-58.17-42.51-94.13-50.9-17.52-.22-39.29.83-52.43,6.33,0,0,6.67-6.14,25.27-10.75-6.37-.6-12.82-.91-19.35-.91C128.1,0,61.9,41.46,26.76,102.96,81.37,33.45,162.12,30.18,162.12,30.18c-8.03,2.3-21.21,10.83-23.07,12.91,69.56-17.56,132.78,4.1,132.78,4.1-27.43,9.44-36.87,24.73-36.87,24.73,112-1.81,164.31,72.99,164.39,73.08-7.37-24.42-19.22-46.89-34.55-66.51Z"/><path class="cls-1" d="m368.51,214.81c-2.48-4.91-5.92-7.53-12.25-10.01-2.87-.85-6.4-1.81-8.28-.22l-7.94-6.89c-1.77-1.54-3.94-2.24-7.49-1.31-.47-2.33-1.91-4.15-6.07-7.08-2.7-1.43-5.46-5.54-8.77-4.35l-10.49-16.64c-3.67-12.74-13.11-20.71-26.98-31.33-13.77-10.36-28.4-23.64-31.33-44.82-2.03,9.15-1.89,21.18,2.59,28.92-27.21-12.05-40.81-37.87-40.81-37.87,2.95,23.59,23.59,41.49,37.73,49.95l29.12,11.85s-17.63-3.11-34.9-6.33c0,0-.01,0-.02,0-93.53-22.07-100.27-60-100.27-60-2.12,12.31,3.57,22.07,8.91,28.22l17.62,9.4-9.67-2.1c-42.27-10.79-62.73-49.01-62.73-49.01,0,0,.32,7.94,15.89,30.73,23.95,35.07,100.71,54.86,100.71,54.86-1.83-.16-51.84,4.57-87.29,39.98,7.03-2.28,17.72-3.76,25.26-3.41-59.96,32.38-70.75,104.47-70.75,104.47-23.83-102.07,69.7-147.49,69.7-147.49C46.4,145.96,7.11,178.89.9,184.79c-.57,6.11-.88,12.3-.9,18.56,5.93-6.08,15.73-13.99,31.11-21.03,0,0-20.66,14.41-30.58,36.18.78,11.13,2.45,22.02,4.94,32.59,8.26-22.85,28.88-54.98,80.2-79.34,0,0-58.9,35.52-64.61,122.59,7.29,14.74,16.31,28.47,26.79,40.93,1.02-12.41,3.26-28.01,8.14-39.41,0,0-2.6,27.79,11.12,59.4,19.09,17.29,41.46,31.02,66.07,40.14-16.94-51.94-26.54-136.41,29.23-182.81,1.96-1.63-67.45,58.1-8.65,189.2,16.07,4.07,32.9,6.24,50.24,6.24,6.88,0,13.67-.36,20.37-1.02-15.1-5.87-33.04-17.91-44.88-34.7,0,0,24.58,29.38,83.02,27.2,41.68-12.46,77.77-37.89,103.57-71.6h0c-15.82,15.82-54.62,16.18-54.62,16.18-4.57,14.43-26.26,32.72-45.79,33.92,27.73-11.39,32.68-34.23,32.68-34.23-16.84.83-36.23-1.41-55.76-5.41-37.51,27.54-89.93,4.27-89.93,4.27,47.55,13.6,76.67-8.42,76.67-8.42-13.11-1.54-26.98-11.51-33.95-20.81-30.05,1.57-41.28-9.78-50.83-19.94,16.78,13.74,43.56,13.27,46.6,11.73-6.53-7.29-7.72-14.66-8.06-22.67-32.83-13.19-22.29-45.92-22.29-45.92-1.69,31.55,23.79,37.67,23.79,37.67,3.76-6.88,9.74-16.68,21.88-21.21-15.47-29.08-3.9-54.34-3.9-54.34-3.94,28.43,16.53,33.86,34.17,45.19,15.35,9.86,31.76,25.88,34.17,38.56-.45,5.85-7.11,10.4-9.83,11.81,8.02,2.25,13.09-1.13,13.09-1.13.9,11.69-15.96,15.51-15.96,15.51,22.82,2.81,28.89-11.31,28.89-11.31,13.01,1.87,18.9-7.98,17.86-14.72-2.27,1.71-4.17,2.32-7.82,2.12-.04-21.28-39.6-22.98-38.28-61.07-4.07-2.81-11.09-8.1-13.88-12.97-.35-.6,16.31,8.93,35.47,12.86l14.98,1.66s2.54-.03,5.47.6l.81.09c.14.07.27.14.41.21,3.78,1.05,7.72,3.33,7.5,8.23,1.31-.6,4.25-3.93,3.78-6.64,5.99,3.07,8.32,5.36,9.78,8.51,1.99-.08,5.27-2.75,5.04-5.74,5.92,7.95-3.05,22.15-3.05,22.15,19.35-5.3,20.04-16.05,20.04-16.05,4.68,5.3,3.34,12.34,3.34,12.34,12.44-.75,16.08-8.53,16.08-8.53,4.53.03,4.76-1.06,4.76-1.06,5.27-12.08-.9-24.54-.9-24.54Zm-88.58-28.89s-11.02-6.07-6.97-14.16l25.41,21.13-18.44-6.97Z"/><path class="cls-1" d="m488.5,158.13s-1.76,2.1-1.76,4.95v5.63c0,2.44.61,4.07.61,4.07,0,0-7.6,7.39-19.88,7.39-13.43,0-23-9.23-23-22.59,0-14.45,10.79-24.76,24.36-24.76,10.24,0,16.21,3.46,16.21,3.46,0,0-.48,3.05-.48,5.9,0,2.44.41,4.34.41,4.34-.61.68-1.76,1.02-2.85.81-1.83-5.43-6.65-10.85-14.58-10.85-7.46,0-13.03,5.83-13.03,16.76,0,14.11,7.87,22.66,16.08,22.66,3.6,0,6.65-1.29,6.65-1.29,0,0,.47-1.29.47-3.26v-5.56c0-3.32-2.04-5.16-8.21-5.16,0,0-.34-.88-.34-1.49,0-.81.41-1.56.41-1.56,0,0,8.48.2,10.92.2,3.8,0,7.12-1.09,7.12-1.09l.88,1.42Z"/><path class="cls-1" d="m542.71,155.34c0,14.52-10.85,24.83-24.42,24.83s-23-9.23-23-22.59c0-14.52,10.85-24.76,24.42-24.76s23,9.16,23,22.52Zm-10.11,3.93c0-13.7-7.94-22.52-16.15-22.52-6.17,0-11.12,5.7-11.12,16.49,0,13.7,8,22.52,16.21,22.52,6.17,0,11.06-5.7,11.06-16.49Z"/><path class="cls-1" d="m588.71,166.33s-1.42,6.24-1.56,12.55c0,0-8.96-.2-17.3-.2h-10.92c-5.43,0-10.79.47-10.79.47,0,0-.41-.47-.41-1.22,0-.61.2-1.02.2-1.02,3.73-.2,5.77-2.04,5.77-5.7v-29.51c0-3.66-2.04-5.5-5.77-5.7,0,0-.2-.41-.2-1.02,0-.75.41-1.29.41-1.29,0,0,5.83.54,10.18.54s10.58-.54,10.58-.54c0,0,.41.54.41,1.29,0,.61-.2,1.02-.2,1.02-3.93.2-5.97,2.04-5.97,5.7v28.09c0,3.53,2.31,5.5,6.78,5.5h4.82c6.24,0,9.57-2.71,11.19-9.5,0,0,.48-.14,1.02-.14,1.09,0,1.76.68,1.76.68Z"/><path class="cls-1" d="m641.76,154.8c0,14.59-9.43,24.49-21.51,24.49-4.48,0-9.7-.61-16.49-.61-5.63,0-10.79.41-10.79.41,0,0-.41-.47-.41-1.22,0-.61.2-1.02.2-1.02,3.73-.2,5.77-2.04,5.77-5.7v-29.44c0-3.66-2.04-5.5-5.77-5.7,0,0-.2-.34-.2-.95,0-.75.41-1.29.41-1.29,0,0,6.58.47,11.87.47,5.9,0,9.84-.68,16.76-.68,12.28,0,20.15,9.97,20.15,21.23Zm-10.11,2.51c0-12.69-6.58-20.56-17.03-20.56-4.07,0-6.65.95-6.65.95v33.45c0,3.53,2.65,5.16,8.14,5.16,9.36,0,15.54-7.19,15.54-19Z"/><path class="cls-1" d="m688.1,166.33s-1.49,6.38-1.63,12.55c0,0-8.96-.2-17.3-.2h-10.92c-5.43,0-10.79.47-10.79.47,0,0-.41-.47-.41-1.22,0-.61.2-1.02.2-1.02,3.73-.2,5.77-2.04,5.77-5.7v-29.51c0-3.66-2.04-5.5-5.77-5.7,0,0-.2-.41-.2-1.02,0-.75.41-1.29.41-1.29,0,0,5.29.54,10.58.54h18.25c4.54,0,7.53-1.49,7.53-1.49l1.02.68c-.14,6.65.61,11.4.61,11.4-.54.41-1.7.68-2.51.47-1.76-6.44-3.93-7.94-10.11-7.94h-10.38v16.55l6.31-.14c4.88-.14,6.51-1.56,7.26-6.17,0,0,.41-.14.95-.14.95,0,1.56.54,1.56.54,0,0-.54,4.14-.54,7.46s.54,7.46.54,7.46c0,0-.61.48-1.56.48-.54,0-.95-.14-.95-.14-.75-4.61-2.38-5.97-7.26-6.11l-6.31-.14v12.75c0,3.53,2.31,5.5,6.78,5.5h4.82c6.24,0,9.57-2.71,11.19-9.5,0,0,.48-.14,1.02-.14,1.09,0,1.83.68,1.83.68Z"/><path class="cls-1" d="m742.52,134.99c0,.61-.27,1.02-.27,1.02-3.66.34-5.7,1.63-5.7,7.94v29.92c0,2.78.14,5.09.14,5.09h-6.04l-28.15-34.87v24.35c0,6.85,1.76,8.01,6.04,8.48,0,0,.2.41.2,1.02,0,.75-.41,1.22-.41,1.22,0,0-4.07-.47-7.67-.47s-7.67.47-7.67.47c0,0-.41-.47-.41-1.22,0-.61.2-1.02.2-1.02,4.27-.27,6.04-1.63,6.04-8.48v-24.76c0-5.22-1.36-6.99-5.77-7.6,0,0-.2-.61-.2-1.09,0-.61.34-1.36.34-1.36,0,0,6.04.47,15.2.47,0,0,.68,2.71,2.98,5.56l21.57,26.93v-22.66c0-6.38-2.31-7.6-6.31-7.94,0,0-.2-.41-.2-1.02,0-.75.41-1.29.41-1.29,0,0,4,.47,7.73.47s7.53-.47,7.53-.47c0,0,.41.54.41,1.29Z"/><path class="cls-1" d="m812.47,154.8c0,14.59-9.43,24.49-21.5,24.49-4.48,0-9.7-.61-16.49-.61-5.63,0-10.79.41-10.79.41,0,0-.41-.47-.41-1.22,0-.61.2-1.02.2-1.02,3.73-.2,5.77-2.04,5.77-5.7v-29.44c0-3.66-2.04-5.5-5.77-5.7,0,0-.2-.34-.2-.95,0-.75.41-1.29.41-1.29,0,0,6.58.47,11.87.47,5.9,0,9.84-.68,16.76-.68,12.28,0,20.15,9.97,20.15,21.23Zm-10.11,2.51c0-12.69-6.58-20.56-17.03-20.56-4.07,0-6.65.95-6.65.95v33.45c0,3.53,2.65,5.16,8.14,5.16,9.36,0,15.54-7.19,15.54-19Z"/><path class="cls-1" d="m865.25,177.87c0,.75-.41,1.22-.41,1.22,0,0-4.68-.41-8.68-.41-2.99,0-5.83.2-5.83.2-.88-1.76-9.97-16.42-13.16-20.28l-3.66.27v12.14c0,3.87,1.9,5.7,5.97,5.9,0,0,.27.41.27,1.02,0,.75-.41,1.22-.41,1.22,0,0-5.97-.47-10.58-.47s-10.58.47-10.58.47c0,0-.41-.47-.41-1.22,0-.61.27-1.02.27-1.02,4.07-.2,5.97-2.04,5.97-5.9v-29.31c0-3.66-2.04-5.5-5.77-5.7,0,0-.2-.41-.2-1.02,0-.75.41-1.29.41-1.29,0,0,5.83.54,10.18.54s11.47-.68,15.47-.68c7.87,0,12.55,4.68,12.55,11.13,0,7.53-4.07,10.99-9.23,12.82,0,0,5.43,7.94,9.43,13.77,2.58,3.73,5.16,5.36,8.14,5.56,0,0,.27.41.27,1.02Zm-17.98-32.63c0-6.04-3.19-9.09-8.41-9.09-3.12,0-5.36.81-5.36,3.12v16.21s1.42.41,3.53.41c6.51,0,10.24-3.66,10.24-10.65Z"/><path class="cls-1" d="m916.27,177.94c0,.75-.41,1.22-.41,1.22,0,0-5.77-.47-10.04-.47-5.09,0-11.06.47-11.06.47,0,0-.41-.47-.41-1.22,0-.61.2-1.02.2-1.02,2.85-.07,4.61-1.42,4.61-3.12,0-.81-.34-1.76-.75-2.71l-3.39-8.14s-4-.47-8.48-.47-8.34.47-8.34.47l-2.99,6.78c-.54,1.15-1.02,2.38-1.02,3.32,0,2.04,2.71,3.8,5.02,3.87,0,0,.2.41.2,1.02,0,.75-.41,1.22-.41,1.22,0,0-4.88-.47-8.28-.47-3.05,0-7.39.47-7.39.47,0,0-.41-.47-.41-1.22,0-.61.2-1.02.2-1.02,3.05-.14,5.63-2.51,7.39-6.38l16.55-36.23c1.15,0,4.61-.68,5.77-.81,0,0,1.09,2.71,2.17,5.22l13.57,31.07c2.24,5.09,4.88,6.99,7.46,7.12,0,0,.2.41.2,1.02Zm-22.73-18.72l-6.78-16.08-6.92,16.08s3.19.27,6.72.27,6.99-.27,6.99-.27Z"/><path class="cls-1" d="m961.05,158.13s-1.76,2.1-1.76,4.95v5.63c0,2.44.61,4.07.61,4.07,0,0-7.6,7.39-19.88,7.39-13.43,0-23-9.23-23-22.59,0-14.45,10.79-24.76,24.36-24.76,10.24,0,16.21,3.46,16.21,3.46,0,0-.48,3.05-.48,5.9,0,2.44.41,4.34.41,4.34-.61.68-1.76,1.02-2.85.81-1.83-5.43-6.65-10.85-14.58-10.85-7.46,0-13.03,5.83-13.03,16.76,0,14.11,7.87,22.66,16.08,22.66,3.6,0,6.65-1.29,6.65-1.29,0,0,.47-1.29.47-3.26v-5.56c0-3.32-2.04-5.16-8.21-5.16,0,0-.34-.88-.34-1.49,0-.81.41-1.56.41-1.56,0,0,8.48.2,10.92.2,3.8,0,7.12-1.09,7.12-1.09l.88,1.42Z"/><path class="cls-1" d="m1015.26,155.34c0,14.52-10.85,24.83-24.42,24.83s-23-9.23-23-22.59c0-14.52,10.85-24.76,24.42-24.76s23,9.16,23,22.52Zm-10.11,3.93c0-13.7-7.94-22.52-16.15-22.52-6.17,0-11.12,5.7-11.12,16.49,0,13.7,8,22.52,16.21,22.52,6.17,0,11.06-5.7,11.06-16.49Z"/><path class="cls-1" d="m1069.4,134.99c0,.61-.27,1.02-.27,1.02-3.66.34-5.7,1.63-5.7,7.94v29.92c0,2.78.14,5.09.14,5.09h-6.04l-28.15-34.87v24.35c0,6.85,1.76,8.01,6.04,8.48,0,0,.2.41.2,1.02,0,.75-.41,1.22-.41,1.22,0,0-4.07-.47-7.67-.47s-7.67.47-7.67.47c0,0-.41-.47-.41-1.22,0-.61.2-1.02.2-1.02,4.27-.27,6.04-1.63,6.04-8.48v-24.76c0-5.22-1.36-6.99-5.77-7.6,0,0-.2-.61-.2-1.09,0-.61.34-1.36.34-1.36,0,0,6.04.47,15.2.47,0,0,.68,2.71,2.99,5.56l21.57,26.93v-22.66c0-6.38-2.31-7.6-6.31-7.94,0,0-.2-.41-.2-1.02,0-.75.41-1.29.41-1.29,0,0,4,.47,7.73.47s7.53-.47,7.53-.47c0,0,.41.54.41,1.29Z"/><path class="cls-1" d="m484.43,210.44c0,8.96-6.72,14.72-17.1,14.72-3.26,0-6.65-.95-6.65-.95v11.8c0,3.8,2.1,5.7,6.51,5.9,0,0,.27.41.27,1.02,0,.75-.41,1.22-.41,1.22,0,0-5.97-.54-10.99-.54-4.75,0-10.72.54-10.72.54,0,0-.41-.47-.41-1.22,0-.61.27-1.02.27-1.02,4.07-.2,5.97-2.04,5.97-5.9v-29.31c0-3.66-1.97-5.5-5.7-5.7,0,0-.2-.41-.2-1.02,0-.75.41-1.29.41-1.29,0,0,5.77.54,10.11.54,5.02,0,10.45-.54,15.74-.54,7.73,0,12.89,5.22,12.89,11.74Zm-9.5.68c0-6.04-3.19-9.7-8.55-9.7-3.46,0-5.7.61-5.7,2.92v17.3s1.76.61,4.34.61c6.17,0,9.91-4.41,9.91-11.13Z"/><path class="cls-1" d="m534.16,242.94c0,.75-.41,1.22-.41,1.22,0,0-5.77-.47-10.04-.47-5.09,0-11.06.47-11.06.47,0,0-.41-.47-.41-1.22,0-.61.2-1.02.2-1.02,2.85-.07,4.61-1.42,4.61-3.12,0-.81-.34-1.76-.75-2.71l-3.39-8.14s-4-.47-8.48-.47-8.34.47-8.34.47l-2.99,6.78c-.54,1.15-1.02,2.38-1.02,3.32,0,2.04,2.71,3.8,5.02,3.87,0,0,.2.41.2,1.02,0,.75-.41,1.22-.41,1.22,0,0-4.88-.47-8.28-.47-3.05,0-7.39.47-7.39.47,0,0-.41-.47-.41-1.22,0-.61.2-1.02.2-1.02,3.05-.14,5.63-2.51,7.39-6.38l16.55-36.23c1.15,0,4.61-.68,5.77-.81,0,0,1.09,2.71,2.17,5.22l13.57,31.07c2.24,5.09,4.88,6.99,7.46,7.12,0,0,.2.41.2,1.02Zm-22.73-18.72l-6.78-16.08-6.92,16.08s3.19.27,6.72.27,6.99-.27,6.99-.27Z"/><path class="cls-1" d="m577.31,231.33s-1.42,6.24-1.56,12.55c0,0-8.96-.2-17.3-.2h-10.92c-5.43,0-10.79.47-10.79.47,0,0-.41-.47-.41-1.22,0-.61.2-1.02.2-1.02,3.73-.2,5.77-2.04,5.77-5.7v-29.51c0-3.66-2.04-5.5-5.77-5.7,0,0-.2-.41-.2-1.02,0-.75.41-1.29.41-1.29,0,0,5.83.54,10.18.54s10.58-.54,10.58-.54c0,0,.41.54.41,1.29,0,.61-.2,1.02-.2,1.02-3.93.2-5.97,2.04-5.97,5.7v28.09c0,3.53,2.31,5.5,6.78,5.5h4.82c6.24,0,9.57-2.71,11.19-9.5,0,0,.48-.14,1.02-.14,1.09,0,1.76.68,1.76.68Z"/><path class="cls-1" d="m631.45,242.94c0,.75-.41,1.22-.41,1.22,0,0-5.77-.47-10.04-.47-5.09,0-11.06.47-11.06.47,0,0-.41-.47-.41-1.22,0-.61.2-1.02.2-1.02,2.85-.07,4.61-1.42,4.61-3.12,0-.81-.34-1.76-.75-2.71l-3.39-8.14s-4-.47-8.48-.47-8.34.47-8.34.47l-2.99,6.78c-.54,1.15-1.02,2.38-1.02,3.32,0,2.04,2.71,3.8,5.02,3.87,0,0,.2.41.2,1.02,0,.75-.41,1.22-.41,1.22,0,0-4.88-.47-8.28-.47-3.05,0-7.39.47-7.39.47,0,0-.41-.47-.41-1.22,0-.61.2-1.02.2-1.02,3.05-.14,5.63-2.51,7.39-6.38l16.55-36.23c1.15,0,4.61-.68,5.77-.81,0,0,1.09,2.71,2.17,5.22l13.57,31.07c2.24,5.09,4.88,6.99,7.46,7.12,0,0,.2.41.2,1.02Zm-22.73-18.72l-6.78-16.08-6.92,16.08s3.19.27,6.72.27,6.99-.27,6.99-.27Z"/><path class="cls-1" d="m673.79,234.86c-2.78,4.54-9.02,10.31-18.59,10.31-13.5,0-23-9.23-23-22.59,0-14.45,10.79-24.76,24.35-24.76,9.9,0,16.21,3.53,16.21,3.53,0,0-.47,2.58-.47,5.56,0,2.58.54,4.68.54,4.68-.54.68-1.7,1.15-2.85.95-1.97-5.7-6.72-11.06-14.86-11.06-7.19,0-12.89,5.9-12.89,16.76,0,13.7,7.46,21.91,17.3,21.91,5.63,0,10.72-4.21,12.62-6.99.88.2,1.49.95,1.63,1.7Z"/><path class="cls-1" d="m720.06,231.33s-1.49,6.38-1.63,12.55c0,0-8.96-.2-17.3-.2h-10.92c-5.43,0-10.79.47-10.79.47,0,0-.41-.47-.41-1.22,0-.61.2-1.02.2-1.02,3.73-.2,5.77-2.04,5.77-5.7v-29.51c0-3.66-2.04-5.5-5.77-5.7,0,0-.2-.41-.2-1.02,0-.75.41-1.29.41-1.29,0,0,5.29.54,10.58.54h18.25c4.54,0,7.53-1.49,7.53-1.49l1.02.68c-.14,6.65.61,11.4.61,11.4-.54.41-1.7.68-2.51.47-1.76-6.44-3.93-7.94-10.11-7.94h-10.38v16.55l6.31-.14c4.88-.14,6.51-1.56,7.26-6.17,0,0,.41-.14.95-.14.95,0,1.56.54,1.56.54,0,0-.54,4.14-.54,7.46s.54,7.46.54,7.46c0,0-.61.48-1.56.48-.54,0-.95-.14-.95-.14-.75-4.61-2.38-5.97-7.26-6.11l-6.31-.14v12.75c0,3.53,2.31,5.5,6.78,5.5h4.82c6.24,0,9.57-2.71,11.19-9.5,0,0,.48-.14,1.02-.14,1.09,0,1.83.68,1.83.68Z"/><path class="cls-1" d="m495.56,302.5l-21.13-25.69c-.43.64-1,1.49-1.92,2.7-4.77,6.76-7.12,9.68-12.1,15.01,12.95-1.14,20.21-2.56,22.2-3.84l3.2,2.35c.57.43.5.92-.21,1l-9.82,1.28v9.75c6.69-.71,10.74-1.49,12.24-2.21l2.99,2.28c.85.64.85.92-.07,1l-15.16,1.35v18.71l3.2-.21c5.76-9.82,6.97-13.09,7.12-16.65l1.07-.28,2.63,4.84c.21.43.14.78-.36,1.14-1.28.85-2.7,2.92-8.11,10.89,6.69-.5,12.17-1.42,15.51-2.49l3.7,3.06c.64.5.43.92-.14.92-36.71,1.85-42.19,2.35-48.6,3.63l-3.84-3.13,24.83-1.57v-18.57c-4.84.43-9.11,1.14-12.74,2.06l-3.98-3.06,16.72-1.5v-9.61c-5.41.71-7.83,1.14-10.03,1.71l-3.06-2.06c-4.41,4.55-10.46,9.25-16.37,13.02l-.71-1.14c11.24-8.68,18-15.65,26.4-28.6,2.78-4.27,4.06-7.75,3.77-11.1l1-.5,3.56,5.19c.43.57.36.92-.14,1.21-.43.21-1.14.85-1.71,1.71l9.89,11.03c10.81,12.03,14.09,12.81,21.42,13.8v1.14l-11.24,1.42Zm-29.6,22.2c-.36.64-.78.57-1-.07l-4.84-12.52,1-.71,6.55,8.54c-.21,1.42-.85,3.27-1.71,4.77Z"/><path class="cls-1" d="m451.63,331.71l-5.31-4.33,25.84-1.63v-17.3c-4.41.42-8.43,1.08-11.96,1.98l-.29.08-5.5-4.22,17.75-1.59v-8.32c-4.71.63-7.09,1.04-9.25,1.6l-.27.07-2.86-1.93c-4.16,4.22-10,8.84-16.11,12.74l-.53.34-1.35-2.15.45-.35c11.69-9.03,18.32-16.21,26.25-28.45,2.8-4.31,3.94-7.61,3.67-10.71l-.04-.42,1.86-.93,3.87,5.64c.32.43.45.84.37,1.22-.07.36-.31.65-.71.88-.25.13-.74.51-1.22,1.12l9.55,10.65c11.01,12.24,14.15,12.67,21.04,13.6l.54.07v2.24l-12.13,1.54-20.82-25.3c-.37.55-.84,1.21-1.48,2.04-4.4,6.24-6.77,9.24-11.03,13.86,10.81-1.01,18.34-2.34,20.29-3.6l.36-.23,3.55,2.6c.5.38.73.87.6,1.33-.06.21-.29.71-1.12.79l-9.26,1.21v8.5c7.89-.87,10.49-1.67,11.34-2.07l.34-.16,3.29,2.51c.36.27,1.03.77.85,1.42-.18.62-.93.67-1.25.7l-14.58,1.3v17.47l2.2-.15c5.74-9.81,6.73-12.79,6.86-16.07l.02-.46,1.99-.53,2.87,5.27c.22.44.43,1.25-.54,1.95-1.13.76-2.5,2.68-7.23,9.65,5.81-.49,10.88-1.34,14.07-2.36l.33-.1,3.96,3.28c.74.57.64,1.14.57,1.35-.14.42-.57.68-1.11.68-36.88,1.86-42.12,2.34-48.47,3.62l-.29.06Zm-2.04-3.28l2.38,1.94c6.28-1.24,11.91-1.74,47.98-3.56l-3.25-2.68c-3.53,1.07-9.09,1.95-15.33,2.42l-1.29.1.73-1.07c5.55-8.18,6.91-10.14,8.28-11.06.23-.17.21-.2.14-.34l-2.39-4.39-.15.04c-.22,3.36-1.41,6.66-7.18,16.48l-.17.29-4.2.28v-19.95l15.35-1.37-2.58-1.96c-2.34.93-7.8,1.65-12.08,2.11l-.69.07v-10.99l10.15-1.32-2.74-2.01c-2.69,1.38-10.44,2.69-22,3.71l2.31,1.56c2.25-.56,4.8-.99,9.83-1.65l.71-.09v10.89l-15.69,1.4,2.47,1.9c3.7-.92,7.92-1.6,12.54-2.01l.68-.06v19.84l-23.83,1.5Zm-6.14-21.08l.08.12c5.81-3.76,11.34-8.15,15.31-12.17l1.11-1.19c4.94-5.29,7.3-8.23,12.04-14.95.92-1.21,1.49-2.06,1.9-2.68l.47-.7.54.64,20.91,25.42,10.35-1.35c-7.09-.99-10.64-2.13-21.26-13.93l-10.21-11.39.27-.4c.57-.85,1.35-1.62,1.95-1.92.04-.02.06-.04.08-.05-.02-.02-.06-.1-.15-.22l-3.27-4.77-.14.07c.16,3.26-1.06,6.7-3.9,11.07-7.92,12.22-14.55,19.44-26.09,28.41Zm21.99,18.43s-.06,0-.08,0c-.26-.02-.73-.18-.98-.94l-5-12.95,1.88-1.35,7.08,9.23-.04.26c-.23,1.56-.92,3.47-1.78,4.98-.36.65-.79.76-1.07.76Zm-4.55-13.44l4.61,11.93c.7-1.27,1.28-2.85,1.52-4.16l-6.01-7.84-.11.08Z"/><path class="cls-1" d="m575.25,328.83c-9.18,1.64-11.88,1.71-18.71,1.14-9.04-.64-10.74-1.49-10.74-8.89v-6.47c-4.06,2.56-6.55,3.77-11.1,5.62l-.43-1.14c5.12-2.99,8.11-4.98,11.53-7.47v-12.74c0-4.55-.07-6.26-.36-7.76l-2.49.29c-3.84,19.71-10.32,29.1-26.47,40.41l-.71-1c13.23-10.1,20.78-22.2,23.84-39.13-7.75.85-13.16,1.71-17.43,2.7l-4.13-3.49,21.99-1.99c1.92-12.1,1.99-16.51.93-21.49l.92-.71,4.98,4.55c.36.36.36.71,0,1.14-.71.85-1,1.64-1.57,5.48-.5,3.42-1,6.05-1.85,10.67,12.81-1.14,17.57-2.21,22.2-3.91l3.91,3.2c.78.64.71.85-.21.92l-21.91,2.21,2.77,2.7c.43.43.5.85,0,1.64-.78,1.14-1.35,3.13-1.35,5.27v8.75c7.54-5.98,10.67-10.25,11.38-13.52l.93-.36,2.21,4.84c.43,1,.29,1.35-.43,1.49-.85.14-1.71.57-3.42,2.21-3.7,3.56-5.91,5.27-10.67,8.61v8.33c0,5.05,1.42,5.76,7.12,6.12,4.55.29,12.17-.21,14.87-1.21l.57-12.95h1.28c.64,4.98,1.57,9.68,2.99,14.94.14.64-.07.92-.43,1Zm-17.08-45.96c-.21.71-.57.78-1,.21l-6.97-10.17.78-.78,8.11,5.69c-.21,2.35-.57,4.13-.93,5.05Z"/><path class="cls-1" d="m516.33,332.68l-1.42-1.99.48-.37c13.1-10,20.35-21.72,23.45-37.92-7.1.8-12.37,1.63-16.52,2.6l-.31.07-5.51-4.65,22.99-2.08c1.76-11.19,1.94-15.7.86-20.78l-.08-.39,1.65-1.27,5.37,4.91c.61.6.62,1.33.06,2-.58.7-.86,1.33-1.43,5.17-.46,3.15-.91,5.58-1.65,9.62l-.05.27c12.23-1.11,16.78-2.16,21.22-3.8l.34-.12,4.19,3.43c.34.28.92.75.73,1.36-.19.59-.91.65-1.29.68l-20.57,2.07,1.81,1.77c.89.9.48,1.81.09,2.42-.77,1.12-1.25,3.04-1.25,4.93v7.45c6.1-4.97,9.42-9.02,10.15-12.35l.07-.33,1.79-.69,2.45,5.37c.24.55.44,1.18.16,1.7-.27.51-.85.63-1.04.66-.73.12-1.5.51-3.1,2.04-3.66,3.51-5.87,5.24-10.48,8.48v8c0,4.42.85,5.14,6.53,5.49,4.19.26,11.32-.17,14.23-1.04l.58-13.12h2.43l.07.54c.65,5.03,1.59,9.75,2.97,14.86.12.53.07.95-.14,1.27-.17.26-.44.44-.77.5h-.01c-9.37,1.67-12.11,1.71-18.87,1.15-9.17-.65-11.32-1.61-11.32-9.52v-5.35c-3.72,2.29-6.27,3.46-10.24,5.07l-.59.24-.84-2.23.46-.27c5.19-3.03,8.09-4.98,11.22-7.25v-12.42c0-3.98-.06-5.74-.25-7.07l-1.45.17c-3.83,19.3-10.11,28.78-26.64,40.36l-.51.36Zm.3-1.74h0c15.96-11.29,22-20.64,25.71-39.67l.09-.45,3.52-.4.11.57c.29,1.51.37,3.21.37,7.87v13.05l-.26.19c-3.17,2.31-6.03,4.25-11.12,7.24l.02.04c3.95-1.62,6.39-2.79,10.41-5.33l.96-.61v7.61c0,6.77,1.04,7.62,10.16,8.27,6.64.55,9.33.51,18.53-1.12-.01-.03-.01-.11-.04-.25-1.34-4.96-2.28-9.57-2.93-14.45h-.13l-.56,12.77-.39.14c-2.82,1.04-10.58,1.53-15.12,1.25-5.97-.37-7.7-1.3-7.7-6.74v-8.65l.27-.19c4.74-3.32,6.93-5.02,10.6-8.55,1.84-1.76,2.79-2.21,3.75-2.37.09-.02.14-.04.17-.05-.03-.02-.05-.19-.21-.58l-1.96-4.29-.07.03c-.97,3.73-4.75,8.17-11.53,13.54l-1.01.8v-10.04c0-2.15.56-4.31,1.46-5.62.36-.56.25-.66.07-.84l-3.73-3.63,22.95-2.31-3.45-2.83c-4.54,1.64-9.35,2.7-22.02,3.83l-.82.07.35-1.89c.74-4.02,1.19-6.44,1.65-9.57.56-3.79.85-4.76,1.7-5.79.1-.12.12-.18.12-.2,0,0-.02-.04-.08-.1l-4.57-4.18-.2.15c1.05,5.17.82,9.89-1,21.33l-.08.48-20.98,1.9,2.75,2.32c4.32-.99,9.8-1.83,17.2-2.65l.83-.09-.15.82c-3.03,16.76-10.31,28.86-23.59,39.15Zm41.06-46.87c-.36,0-.7-.21-1.01-.63l-7.28-10.62,1.52-1.52,8.84,6.2-.03.36c-.2,2.25-.55,4.14-.96,5.2-.18.59-.49.92-.91,1-.06.01-.11.02-.17.02Zm-.21-1.17h0Zm-6.46-9.94l6.59,9.62c.34-.9.64-2.55.84-4.48l-7.38-5.18-.04.04Z"/><path class="cls-1" d="m643.19,279.66c-2.28,1.07-4.27,2.56-9.32,8.54l-.93-.71,4.34-7.68-41.2,3.06c-.28,3.49-1.35,6.83-2.92,9.04-.36.5-.71.57-1,0l-1.92-4.34c2.92-3.27,4.27-6.69,3.77-12.24l1.28-.07c.5,1.64.78,3.34.85,5.05l41.48-3.13,2.06-2.42,3.56,3.27c.85.78.85,1.14-.07,1.64Zm-10.17,31.38c-1,.64-1.92,2.28-2.28,3.98l-1.78,8.25,1.99,1.78c.78.64.71,1.07-.28,1.14l-25.54,1.21c.07,3.34,0,4.27-.21,5.34-.14.85-.64,1.07-1.14.21l-2.49-4.13c.5-1.28.64-2.42.5-5.62l-.29-8.04c-.07-1.85-.64-5.27-1.78-8.11l.78-.5,3.49,4.91,23.2-1.64,2.06-3.06,3.91,3.06c.5.36.57.78-.14,1.21Zm-3.77-20.92c-.93.64-1.57,1.85-1.92,3.56l-1.14,5.12,1.92,1.64c.78.71.71,1.14-.14,1.21l-20.78,1.78c.07,1.71,0,2.7-.14,3.56-.14.71-.5.71-.93.14l-2.77-3.84c.64-.78,1.14-2.56,1.07-4.91l-.29-5.19c-.07-1.99-.21-3.77-.85-6.26l1.14-.29,2.06,3.98,17.57-1.92,1.71-2.63,3.63,2.7c.57.5.57.92-.14,1.35Zm-24.9,23.84l.64,11.03,20.99-1.42,1.78-11.17-23.41,1.57Zm2.49-20.99l.28,8.04,16.08-1.57,1.64-8.4-18,1.92Zm11.1-16.29c-.57.71-.85.64-1.21-.21l-4.77-10.96.85-.57,7.26,7.47c-.64,1.78-1.28,3.13-2.13,4.27Z"/><path class="cls-1" d="m604.4,334.12c-.3,0-.75-.15-1.17-.85l-2.64-4.38.11-.29c.44-1.13.6-2.13.46-5.37l-.29-8.04c-.07-1.96-.69-5.3-1.73-7.9l-.19-.48,1.72-1.1,3.63,5.11,22.54-1.59,2.27-3.36,4.44,3.47c.53.38.63.81.62,1.09-.02.44-.29.82-.82,1.14-.84.54-1.68,2.05-2,3.58l-1.7,7.9,1.72,1.54c.21.17.92.75.7,1.46-.14.46-.6.72-1.35.77l-24.95,1.18c.05,2.85-.02,3.79-.24,4.86-.16.96-.67,1.19-.96,1.25-.05,0-.1.01-.17.01Zm-2.43-5.36l2.33,3.85c.19-.97.27-1.81.2-5.2v-.61s26.1-1.24,26.1-1.24c-.01-.01-.03-.02-.04-.03l-2.28-2.04,1.86-8.61c.39-1.89,1.42-3.65,2.55-4.38h.02c.08-.06.13-.1.17-.13-.02-.01-.04-.03-.06-.05l-3.41-2.66-1.86,2.75-23.85,1.68-2.98-4.19c.88,2.6,1.35,5.47,1.42,7.22l.29,8.04c.13,2.94.04,4.24-.43,5.58Zm2.42-3.11l-.71-12.28,24.81-1.66-1.98,12.44-22.12,1.5Zm.61-11.11l.57,9.78,19.86-1.35,1.58-9.91-22.01,1.47Zm1.65-6.38c-.36,0-.7-.22-1.04-.66l-3.06-4.24.3-.37c.51-.62.99-2.25.93-4.49l-.28-5.18c-.08-2.13-.24-3.82-.83-6.14l-.16-.61,2.23-.56,2.09,4.04,16.85-1.84,1.91-2.94,4.16,3.1c.49.42.7.84.66,1.26-.06.63-.62.99-.83,1.11-.77.54-1.33,1.61-1.65,3.16l-1.06,4.76,1.63,1.39c.25.23.96.87.72,1.58-.15.43-.55.68-1.21.73l-20.18,1.73c.03,1.25-.02,2.2-.17,3.09-.15.76-.52.99-.81,1.05-.07.01-.13.02-.2.02Zm-2.55-4.89l2.37,3.28c.08-.63.15-1.53.08-3.1l-.03-.6,21.29-1.82s-.08-.08-.14-.13l-2.19-1.87,1.22-5.49c.39-1.88,1.13-3.21,2.18-3.94l.03-.02c.13-.08.2-.14.23-.17-.03-.02-.08-.08-.18-.17l-3.06-2.28-1.51,2.32-18.3,2-2.03-3.93h-.05c.5,2.14.65,3.78.72,5.8l.28,5.18c.06,2.03-.29,3.85-.93,4.93Zm2.41-1.58l-.33-9.29,19.42-2.07-1.89,9.68-17.21,1.67Zm.96-8.17l.24,6.79,14.96-1.46,1.38-7.11-16.58,1.77Zm-14.84-.6s-.05,0-.08,0c-.27-.02-.65-.17-.94-.74l-2.1-4.74.27-.3c3.05-3.43,4.07-6.72,3.62-11.77l-.06-.64,2.42-.13.14.47c.45,1.47.73,3,.84,4.56l40.59-3.06,2.32-2.71,4.04,3.71c.47.43.9.91.83,1.5-.07.56-.56.9-1.02,1.15l-.03.02c-2.28,1.07-4.22,2.59-9.11,8.38l-.38.46-1.83-1.41,4.03-7.14-39.5,2.93c-.36,3.44-1.43,6.63-2.98,8.81-.32.44-.67.67-1.05.67Zm-1.65-5.26l1.7,3.84c1.47-2.09,2.51-5.33,2.78-8.69l.04-.53,42.9-3.19-4.65,8.23.02.02c4.75-5.57,6.76-7.12,9.13-8.24.17-.09.27-.16.32-.2-.05-.07-.16-.2-.39-.41l-3.08-2.83-1.81,2.12-42.39,3.2-.03-.65c-.06-1.51-.3-3-.69-4.43h-.15c.33,4.88-.77,8.35-3.71,11.77Zm26.31-9.89s-.08,0-.13,0c-.62-.09-.89-.75-1.03-1.08l-4.97-11.43,1.72-1.15,7.89,8.12-.13.37c-.71,1.98-1.38,3.3-2.22,4.43v.02c-.19.22-.59.72-1.13.72Zm-4.54-12.01l4.54,10.44c.03.06.05.12.07.16.02-.02.04-.05.07-.08.71-.95,1.29-2.08,1.91-3.73l-6.59-6.78Z"/></svg>